# xmcd
#
# Track frame offsets: 
#        150
#        17757
#        37819
#        53588
#        70493
#        86138
#        99894
#        114948
#        128218
#        142191
#        159165
#        180632
#
# Disc length: 2650 seconds
#
# Revision: 1
# Processed by: cddbd v1.5.2PL0 Copyright (c) Steve Scherf et al.
# Submitted via: ExactAudioCopy v0.99pb5
#
DISCID=950a580c
DTITLE=Ruben Ramos - Viva La Revolucion!
DYEAR=2008
DGENRE=Latin
TTITLE0=Sufriendo Penas
TTITLE1=Acariciame
TTITLE2=Buscando Un Amor
TTITLE3=No, No, No
TTITLE4=Vengo A Ver
TTITLE5=Con Una Copa De Vino
TTITLE6=A Medias De La Noche
TTITLE7=Buscando Un Camino
TTITLE8=Amigo Del Alma
TTITLE9=Ven A Bailar
TTITLE10=Van Extranar Al Tejano
TTITLE11=Idalia
EXTD=
EXTT0=
EXTT1=
EXTT2=
EXTT3=
EXTT4=
EXTT5=
EXTT6=
EXTT7=
EXTT8=
EXTT9=
EXTT10=
EXTT11=
PLAYORDER=
